<svg width="24" height="24" viewBox="0 0 24 24" fill="none" xmlns="http://www.w3.org/2000/svg">
<path d="M12 2C17.51 2 22 6.48 22 12C22 17.51 17.51 22 12 22C6.48 22 2 17.51 2 12C2 6.48 6.48 2 12 2ZM16 10.0195C15.7 9.72978 15.2304 9.73042 14.9404 10.0303L12 12.9805L9.05957 10.0303C8.76964 9.73043 8.29 9.72979 8 10.0195C7.7 10.3195 7.7 10.7901 8 11.0801L11.4697 14.5703C11.6097 14.7103 11.8 14.79 12 14.79C12.2 14.79 12.3903 14.7103 12.5303 14.5703L16 11.0801C16.15 10.9401 16.2197 10.7496 16.2197 10.5596C16.2196 10.3597 16.1499 10.1694 16 10.0195Z" fill="white"/>
</svg>
