<svg width="24" height="24" viewBox="0 0 24 24" fill="none" xmlns="http://www.w3.org/2000/svg">
<path d="M17.4 15.4C17.4 16.5046 16.5046 17.4 15.4 17.4H5C3.89543 17.4 3 16.5046 3 15.4V5C3 3.89543 3.89543 3 5 3H15.4C16.5046 3 17.4 3.89543 17.4 5V15.4Z" fill="white" stroke="white" stroke-width="1.5"/>
<path d="M20.9996 6.6V19C20.9996 20.1046 20.1042 21 18.9996 21H6.59961" stroke="white" stroke-width="1.5"/>
<path d="M7.9502 7.52432V12.9343C7.9502 13.3191 8.36672 13.5597 8.70006 13.3674L13.0957 10.8315C13.4185 10.6452 13.4314 10.1839 13.1194 9.97988L8.72382 7.10583C8.39127 6.88839 7.9502 7.12699 7.9502 7.52432Z" fill="black" fill-opacity="0.63"/>
</svg>
