<svg width="24" height="24" viewBox="0 0 24 24" fill="none" xmlns="http://www.w3.org/2000/svg">
<path d="M15.4004 2.25L15.6816 2.26465C17.0681 2.40571 18.1504 3.57632 18.1504 5V15.4004C18.1502 16.9189 16.9189 18.1502 15.4004 18.1504H5C3.48135 18.1504 2.25021 16.919 2.25 15.4004V5L2.26465 4.71875C2.40553 3.33211 3.57618 2.25 5 2.25H15.4004Z" stroke="white" stroke-width="1.5"/>
<path d="M7.19922 7.5249C7.19922 6.59381 8.16851 6.01079 8.97461 6.38916L9.13379 6.47803L13.5293 9.35205C14.3092 9.862 14.2769 11.0153 13.4697 11.481L9.07422 14.0171C8.24089 14.4978 7.19922 13.8961 7.19922 12.9341V7.5249Z" stroke="white" stroke-width="1.5"/>
</svg>
