<svg width="20" height="20" viewBox="0 0 20 20" fill="none" xmlns="http://www.w3.org/2000/svg">
<path d="M11.1782 15.6667L15.8923 10.9517C16.6573 10.1669 17.0824 9.11239 17.0753 8.01649C17.0683 6.92059 16.6298 5.87158 15.8548 5.0967C15.0798 4.32182 14.0308 3.88346 12.9349 3.8766C11.839 3.86973 10.7845 4.2949 9.99984 5.06001C9.61355 4.67032 9.15409 4.36076 8.64784 4.14912C8.14159 3.93747 7.59852 3.8279 7.04981 3.8267C6.50111 3.8255 5.95756 3.93269 5.45039 4.14212C4.94322 4.35154 4.48241 4.65908 4.09441 5.04708C3.70642 5.43508 3.39888 5.89589 3.18945 6.40306C2.98002 6.91023 2.87283 7.45377 2.87403 8.00248C2.87523 8.55119 2.9848 9.09426 3.19645 9.60051C3.4081 10.1068 3.71765 10.5662 4.10734 10.9525L8.82151 15.6667C9.13406 15.9791 9.5579 16.1547 9.99984 16.1547C10.4418 16.1547 10.8656 15.9791 11.1782 15.6667Z" stroke="#00AEEF" stroke-width="2" stroke-linecap="round" stroke-linejoin="round"/>
</svg>
